<?xml version="1.0" encoding="UTF-8" standalone="no"?>
<!DOCTYPE svg PUBLIC "-//W3C//DTD SVG 1.1//EN" "http://www.w3.org/Graphics/SVG/1.1/DTD/svg11.dtd">
<svg width="100%" height="100%" viewBox="0 0 16 16" version="1.1" xmlns="http://www.w3.org/2000/svg" xmlns:xlink="http://www.w3.org/1999/xlink" xml:space="preserve" xmlns:serif="http://www.serif.com/" style="fill-rule:evenodd;clip-rule:evenodd;stroke-linejoin:round;stroke-miterlimit:2;">
    <g id="replace-light" transform="matrix(1,0,0,1,-0.00022,1.77636e-15)">
        <path d="M3.221,3.739L5.482,6.008L7.7,3.784L7,3.084L5.988,4.091L5.98,2.491C5.979,2.356 6.031,2.225 6.124,2.127C6.217,2.029 6.345,1.971 6.48,1.965L8,1.965L8,1L6.48,1C6.285,1 6.092,1.039 5.912,1.114C5.732,1.189 5.569,1.299 5.431,1.437C5.294,1.576 5.185,1.74 5.111,1.92C5.037,2.101 4.999,2.294 5,2.489L5,4.1L3.927,3.033L3.221,3.739ZM9.89,5.533L9.902,5.533C10.084,5.844 10.352,6 10.707,6C11.1,6 11.413,5.832 11.648,5.497C11.883,5.162 12,4.717 12,4.164C12,3.653 11.9,3.251 11.699,2.957C11.498,2.662 11.211,2.515 10.84,2.515C10.434,2.515 10.121,2.709 9.902,3.096L9.89,3.096L9.89,1L9,1L9,5.919L9.89,5.919L9.89,5.533ZM9.876,4.472L9.876,4.131C9.876,3.884 9.935,3.684 10.051,3.531C10.169,3.377 10.318,3.3 10.496,3.3C10.686,3.3 10.831,3.378 10.933,3.534C11.036,3.688 11.088,3.902 11.088,4.177C11.088,4.507 11.031,4.764 10.919,4.945C10.808,5.125 10.651,5.215 10.448,5.215C10.281,5.215 10.144,5.144 10.037,5.004C9.93,4.863 9.876,4.686 9.876,4.472ZM9,12.769C8.745,12.923 8.375,13 7.893,13C7.329,13 6.872,12.823 6.524,12.467C6.175,12.112 6,11.654 6,11.093C6,10.445 6.187,9.935 6.559,9.562C6.935,9.187 7.435,9 8.061,9C8.494,9 8.807,9.06 9,9.179L9,10.177C8.764,9.993 8.5,9.901 8.208,9.901C7.883,9.901 7.625,10.001 7.434,10.199C7.245,10.395 7.151,10.667 7.151,11.015C7.151,11.353 7.242,11.618 7.423,11.812C7.605,12.003 7.854,12.099 8.172,12.099C8.454,12.099 8.73,12.007 9,11.823L9,12.769ZM4,7L3,8L3,14L4,15L11,15L12,14L12,8L11,7L4,7ZM4,8L11,8L11,14L4,14L4,8Z" style="fill:rgb(89,89,89);"/>
    </g>
</svg>
