<?xml version="1.0" encoding="UTF-8" standalone="no"?>
<!DOCTYPE svg PUBLIC "-//W3C//DTD SVG 1.1//EN" "http://www.w3.org/Graphics/SVG/1.1/DTD/svg11.dtd">
<svg width="100%" height="100%" viewBox="0 0 24 24" version="1.1" xmlns="http://www.w3.org/2000/svg" xmlns:xlink="http://www.w3.org/1999/xlink" xml:space="preserve" xmlns:serif="http://www.serif.com/" style="fill-rule:evenodd;clip-rule:evenodd;stroke-linejoin:round;stroke-miterlimit:2;">
    <path d="M10.25,0C9.839,0 9.5,0.339 9.5,0.75C9.5,1.161 9.839,1.5 10.25,1.5L11.25,1.5L11.25,2.778C9.181,2.931 7.21,3.727 5.615,5.054L4.28,3.72C4.141,3.591 3.958,3.519 3.769,3.519C3.357,3.519 3.019,3.857 3.019,4.269C3.019,4.458 3.091,4.641 3.22,4.78L4.535,6.096C2.9,7.925 1.996,10.296 2,12.75C2,18.273 6.477,22.75 12,22.75C17.523,22.75 22,18.273 22,12.75C22.004,10.296 21.1,7.925 19.465,6.096L20.78,4.78C20.909,4.641 20.981,4.458 20.981,4.269C20.981,3.857 20.643,3.519 20.231,3.519C20.042,3.519 19.859,3.591 19.72,3.72L18.386,5.054C16.791,3.727 14.82,2.931 12.75,2.778L12.75,1.5L13.75,1.5C14.161,1.5 14.5,1.161 14.5,0.75C14.5,0.339 14.161,0 13.75,0L10.25,0ZM12,21.25C16.663,21.25 20.5,17.413 20.5,12.75C20.5,8.087 16.663,4.25 12,4.25C7.337,4.25 3.5,8.087 3.5,12.75C3.5,17.413 7.337,21.25 12,21.25ZM16.03,8.72C16.321,9.011 16.321,9.489 16.03,9.78L13.649,12.162C13.716,12.351 13.751,12.55 13.751,12.75C13.751,13.71 12.961,14.5 12.001,14.5C11.041,14.5 10.251,13.71 10.251,12.75C10.251,11.79 11.041,11 12.001,11C12.201,11 12.4,11.035 12.589,11.102L14.969,8.72C15.11,8.579 15.301,8.5 15.5,8.5C15.698,8.5 15.889,8.579 16.03,8.72Z" style="fill:rgb(242,242,242);"/>
</svg>
